<?xml version="1.0" encoding="UTF-8"?>
<svg xmlns="http://www.w3.org/2000/svg"
     xmlns:xlink="http://www.w3.org/1999/xlink"
     xmlns:gadfly="http://www.gadflyjl.org/ns"
     version="1.2"
     width="152.4mm" height="101.6mm" viewBox="0 0 152.4 101.6"
     stroke="none"
     fill="#000000"
     stroke-width="0.3"
     font-size="3.88"
>
<defs>
  <marker id="arrow" markerWidth="15" markerHeight="7" refX="5" refY="3.5" orient="auto" markerUnits="strokeWidth">
    <path d="M0,0 L15,3.5 L0,7 z" stroke="context-stroke" fill="context-stroke"/>
  </marker>
</defs>
<g class="plotroot xscalable yscalable" id="img-4c44ce83-1">
  <g font-size="3.88" font-family="'PT Sans','Helvetica Neue','Helvetica',sans-serif" fill="#564A55" stroke="#000000" stroke-opacity="0.000" id="img-4c44ce83-2">
    <g transform="translate(80.88,89.99)">
      <g class="primitive">
        <text text-anchor="middle" dy="0.6em">Trip Time (minutes)</text>
      </g>
    </g>
  </g>
  <g class="guide xlabels" font-size="2.82" font-family="'PT Sans Caption','Helvetica Neue','Helvetica',sans-serif" fill="#6C606B" id="img-4c44ce83-3">
    <g transform="translate(16.37,83.32)">
      <g class="primitive">
        <text text-anchor="middle" dy="0.6em">0</text>
      </g>
    </g>
    <g transform="translate(59.38,83.32)">
      <g class="primitive">
        <text text-anchor="middle" dy="0.6em">50</text>
      </g>
    </g>
    <g transform="translate(102.39,83.32)">
      <g class="primitive">
        <text text-anchor="middle" dy="0.6em">100</text>
      </g>
    </g>
    <g transform="translate(145.4,83.32)">
      <g class="primitive">
        <text text-anchor="middle" dy="0.6em">150</text>
      </g>
    </g>
  </g>
  <g clip-path="url(#img-4c44ce83-4)">
    <g id="img-4c44ce83-5">
      <g pointer-events="visible" stroke-width="0.3" fill="#000000" fill-opacity="0.000" stroke="#000000" stroke-opacity="0.000" class="guide background" id="img-4c44ce83-6">
        <g transform="translate(80.88,46.46)" id="img-4c44ce83-7">
          <path d="M-66.52,-35.85 L66.52,-35.85 66.52,35.85 -66.52,35.85  z" class="primitive"/>
        </g>
      </g>
      <g class="guide ygridlines xfixed" stroke-dasharray="0.5,0.5" stroke-width="0.2" stroke="#D0D0E0" id="img-4c44ce83-8">
        <g transform="translate(80.88,80.32)" id="img-4c44ce83-9">
          <path fill="none" d="M-66.52,0 L66.52,0 " class="primitive"/>
        </g>
        <g transform="translate(80.88,63.39)" id="img-4c44ce83-10">
          <path fill="none" d="M-66.52,0 L66.52,0 " class="primitive"/>
        </g>
        <g transform="translate(80.88,46.46)" id="img-4c44ce83-11">
          <path fill="none" d="M-66.52,0 L66.52,0 " class="primitive"/>
        </g>
        <g transform="translate(80.88,29.54)" id="img-4c44ce83-12">
          <path fill="none" d="M-66.52,0 L66.52,0 " class="primitive"/>
        </g>
        <g transform="translate(80.88,12.61)" id="img-4c44ce83-13">
          <path fill="none" d="M-66.52,0 L66.52,0 " class="primitive"/>
        </g>
      </g>
      <g class="guide xgridlines yfixed" stroke-dasharray="0.5,0.5" stroke-width="0.2" stroke="#D0D0E0" id="img-4c44ce83-14">
        <g transform="translate(16.37,46.46)" id="img-4c44ce83-15">
          <path fill="none" d="M0,-35.85 L0,35.85 " class="primitive"/>
        </g>
        <g transform="translate(59.38,46.46)" id="img-4c44ce83-16">
          <path fill="none" d="M0,-35.85 L0,35.85 " class="primitive"/>
        </g>
        <g transform="translate(102.39,46.46)" id="img-4c44ce83-17">
          <path fill="none" d="M0,-35.85 L0,35.85 " class="primitive"/>
        </g>
        <g transform="translate(145.4,46.46)" id="img-4c44ce83-18">
          <path fill="none" d="M0,-35.85 L0,35.85 " class="primitive"/>
        </g>
      </g>
      <g class="plotpanel" id="img-4c44ce83-19">
        <metadata>
          <boundingbox value="14.366666666666674mm 10.611666666666665mm 133.0333333333333mm 71.70333333333333mm"/>
          <unitbox value="-2.3249806251614573 0.10295406430013294 154.64996125032292 -0.10590812860026587"/>
        </metadata>
        <g shape-rendering="crispEdges" stroke-width="0.3" id="img-4c44ce83-20">
          <g class="geometry" fill-opacity="1" stroke="#000000" stroke-opacity="0.000" fill="#00BFFF" id="img-4c44ce83-21">
            <g transform="translate(16.83,73.21)" id="img-4c44ce83-22">
              <path d="M-0.49,-7.11 L0.49,-7.11 0.49,7.11 -0.49,7.11  z" class="primitive"/>
            </g>
            <g transform="translate(17.75,70.84)" id="img-4c44ce83-23">
              <path d="M-0.49,-9.48 L0.49,-9.48 0.49,9.48 -0.49,9.48  z" class="primitive"/>
            </g>
            <g transform="translate(18.67,64.26)" id="img-4c44ce83-24">
              <path d="M-0.49,-16.06 L0.49,-16.06 0.49,16.06 -0.49,16.06  z" class="primitive"/>
            </g>
            <g transform="translate(19.59,50.31)" id="img-4c44ce83-25">
              <path d="M-0.49,-30.01 L0.49,-30.01 0.49,30.01 -0.49,30.01  z" class="primitive"/>
            </g>
            <g transform="translate(20.51,55.84)" id="img-4c44ce83-26">
              <path d="M-0.49,-24.48 L0.49,-24.48 0.49,24.48 -0.49,24.48  z" class="primitive"/>
            </g>
            <g transform="translate(21.43,52.68)" id="img-4c44ce83-27">
              <path d="M-0.49,-27.64 L0.49,-27.64 0.49,27.64 -0.49,27.64  z" class="primitive"/>
            </g>
            <g transform="translate(22.35,54.26)" id="img-4c44ce83-28">
              <path d="M-0.49,-26.06 L0.49,-26.06 0.49,26.06 -0.49,26.06  z" class="primitive"/>
            </g>
            <g transform="translate(23.28,56.89)" id="img-4c44ce83-29">
              <path d="M-0.49,-23.43 L0.49,-23.43 0.49,23.43 -0.49,23.43  z" class="primitive"/>
            </g>
            <g transform="translate(24.2,60.57)" id="img-4c44ce83-30">
              <path d="M-0.49,-19.74 L0.49,-19.74 0.49,19.74 -0.49,19.74  z" class="primitive"/>
            </g>
            <g transform="translate(25.12,60.57)" id="img-4c44ce83-31">
              <path d="M-0.49,-19.74 L0.49,-19.74 0.49,19.74 -0.49,19.74  z" class="primitive"/>
            </g>
            <g transform="translate(26.04,62.68)" id="img-4c44ce83-32">
              <path d="M-0.49,-17.63 L0.49,-17.63 0.49,17.63 -0.49,17.63  z" class="primitive"/>
            </g>
            <g transform="translate(26.96,68.21)" id="img-4c44ce83-33">
              <path d="M-0.49,-12.11 L0.49,-12.11 0.49,12.11 -0.49,12.11  z" class="primitive"/>
            </g>
            <g transform="translate(27.88,70.84)" id="img-4c44ce83-34">
              <path d="M-0.49,-9.48 L0.49,-9.48 0.49,9.48 -0.49,9.48  z" class="primitive"/>
            </g>
            <g transform="translate(28.8,70.05)" id="img-4c44ce83-35">
              <path d="M-0.49,-10.27 L0.49,-10.27 0.49,10.27 -0.49,10.27  z" class="primitive"/>
            </g>
            <g transform="translate(29.72,73.21)" id="img-4c44ce83-36">
              <path d="M-0.49,-7.11 L0.49,-7.11 0.49,7.11 -0.49,7.11  z" class="primitive"/>
            </g>
            <g transform="translate(30.65,73.47)" id="img-4c44ce83-37">
              <path d="M-0.49,-6.84 L0.49,-6.84 0.49,6.84 -0.49,6.84  z" class="primitive"/>
            </g>
            <g transform="translate(31.57,75.31)" id="img-4c44ce83-38">
              <path d="M-0.49,-5 L0.49,-5 0.49,5 -0.49,5  z" class="primitive"/>
            </g>
            <g transform="translate(32.49,76.89)" id="img-4c44ce83-39">
              <path d="M-0.49,-3.42 L0.49,-3.42 0.49,3.42 -0.49,3.42  z" class="primitive"/>
            </g>
            <g transform="translate(33.41,75.05)" id="img-4c44ce83-40">
              <path d="M-0.49,-5.26 L0.49,-5.26 0.49,5.26 -0.49,5.26  z" class="primitive"/>
            </g>
            <g transform="translate(34.33,77.95)" id="img-4c44ce83-41">
              <path d="M-0.49,-2.37 L0.49,-2.37 0.49,2.37 -0.49,2.37  z" class="primitive"/>
            </g>
            <g transform="translate(35.25,77.68)" id="img-4c44ce83-42">
              <path d="M-0.49,-2.63 L0.49,-2.63 0.49,2.63 -0.49,2.63  z" class="primitive"/>
            </g>
            <g transform="translate(36.17,79.53)" id="img-4c44ce83-43">
              <path d="M-0.49,-0.79 L0.49,-0.79 0.49,0.79 -0.49,0.79  z" class="primitive"/>
            </g>
            <g transform="translate(37.09,78.21)" id="img-4c44ce83-44">
              <path d="M-0.49,-2.11 L0.49,-2.11 0.49,2.11 -0.49,2.11  z" class="primitive"/>
            </g>
            <g transform="translate(38.01,78.74)" id="img-4c44ce83-45">
              <path d="M-0.49,-1.58 L0.49,-1.58 0.49,1.58 -0.49,1.58  z" class="primitive"/>
            </g>
            <g transform="translate(38.94,79.26)" id="img-4c44ce83-46">
              <path d="M-0.49,-1.05 L0.49,-1.05 0.49,1.05 -0.49,1.05  z" class="primitive"/>
            </g>
            <g transform="translate(39.86,79.26)" id="img-4c44ce83-47">
              <path d="M-0.49,-1.05 L0.49,-1.05 0.49,1.05 -0.49,1.05  z" class="primitive"/>
            </g>
            <g transform="translate(40.78,79.53)" id="img-4c44ce83-48">
              <path d="M-0.49,-0.79 L0.49,-0.79 0.49,0.79 -0.49,0.79  z" class="primitive"/>
            </g>
            <g transform="translate(41.7,79.26)" id="img-4c44ce83-49">
              <path d="M-0.49,-1.05 L0.49,-1.05 0.49,1.05 -0.49,1.05  z" class="primitive"/>
            </g>
            <g transform="translate(42.62,79)" id="img-4c44ce83-50">
              <path d="M-0.49,-1.32 L0.49,-1.32 0.49,1.32 -0.49,1.32  z" class="primitive"/>
            </g>
            <g transform="translate(43.54,79.79)" id="img-4c44ce83-51">
              <path d="M-0.49,-0.53 L0.49,-0.53 0.49,0.53 -0.49,0.53  z" class="primitive"/>
            </g>
            <g transform="translate(44.46,79.79)" id="img-4c44ce83-52">
              <path d="M-0.49,-0.53 L0.49,-0.53 0.49,0.53 -0.49,0.53  z" class="primitive"/>
            </g>
            <g transform="translate(45.38,79)" id="img-4c44ce83-53">
              <path d="M-0.49,-1.32 L0.49,-1.32 0.49,1.32 -0.49,1.32  z" class="primitive"/>
            </g>
            <g transform="translate(46.31,80.05)" id="img-4c44ce83-54">
              <path d="M-0.49,-0.26 L0.49,-0.26 0.49,0.26 -0.49,0.26  z" class="primitive"/>
            </g>
            <g transform="translate(47.23,80.32)" id="img-4c44ce83-55">
              <path d="M-0.49,-0 L0.49,-0 0.49,0 -0.49,0  z" class="primitive"/>
            </g>
            <g transform="translate(48.15,79.53)" id="img-4c44ce83-56">
              <path d="M-0.49,-0.79 L0.49,-0.79 0.49,0.79 -0.49,0.79  z" class="primitive"/>
            </g>
            <g transform="translate(49.07,80.32)" id="img-4c44ce83-57">
              <path d="M-0.49,-0 L0.49,-0 0.49,0 -0.49,0  z" class="primitive"/>
            </g>
            <g transform="translate(49.99,80.32)" id="img-4c44ce83-58">
              <path d="M-0.49,-0 L0.49,-0 0.49,0 -0.49,0  z" class="primitive"/>
            </g>
            <g transform="translate(50.91,80.32)" id="img-4c44ce83-59">
              <path d="M-0.49,-0 L0.49,-0 0.49,0 -0.49,0  z" class="primitive"/>
            </g>
            <g transform="translate(51.83,80.32)" id="img-4c44ce83-60">
              <path d="M-0.49,-0 L0.49,-0 0.49,0 -0.49,0  z" class="primitive"/>
            </g>
            <g transform="translate(52.75,80.05)" id="img-4c44ce83-61">
              <path d="M-0.49,-0.26 L0.49,-0.26 0.49,0.26 -0.49,0.26  z" class="primitive"/>
            </g>
            <g transform="translate(53.67,80.32)" id="img-4c44ce83-62">
              <path d="M-0.49,-0 L0.49,-0 0.49,0 -0.49,0  z" class="primitive"/>
            </g>
            <g transform="translate(54.6,80.32)" id="img-4c44ce83-63">
              <path d="M-0.49,-0 L0.49,-0 0.49,0 -0.49,0  z" class="primitive"/>
            </g>
            <g transform="translate(55.52,80.05)" id="img-4c44ce83-64">
              <path d="M-0.49,-0.26 L0.49,-0.26 0.49,0.26 -0.49,0.26  z" class="primitive"/>
            </g>
            <g transform="translate(56.44,79.53)" id="img-4c44ce83-65">
              <path d="M-0.49,-0.79 L0.49,-0.79 0.49,0.79 -0.49,0.79  z" class="primitive"/>
            </g>
            <g transform="translate(57.36,79.79)" id="img-4c44ce83-66">
              <path d="M-0.49,-0.53 L0.49,-0.53 0.49,0.53 -0.49,0.53  z" class="primitive"/>
            </g>
            <g transform="translate(58.28,79.79)" id="img-4c44ce83-67">
              <path d="M-0.49,-0.53 L0.49,-0.53 0.49,0.53 -0.49,0.53  z" class="primitive"/>
            </g>
            <g transform="translate(59.2,80.05)" id="img-4c44ce83-68">
              <path d="M-0.49,-0.26 L0.49,-0.26 0.49,0.26 -0.49,0.26  z" class="primitive"/>
            </g>
            <g transform="translate(60.12,79.53)" id="img-4c44ce83-69">
              <path d="M-0.49,-0.79 L0.49,-0.79 0.49,0.79 -0.49,0.79  z" class="primitive"/>
            </g>
            <g transform="translate(61.04,80.05)" id="img-4c44ce83-70">
              <path d="M-0.49,-0.26 L0.49,-0.26 0.49,0.26 -0.49,0.26  z" class="primitive"/>
            </g>
            <g transform="translate(61.97,80.32)" id="img-4c44ce83-71">
              <path d="M-0.49,-0 L0.49,-0 0.49,0 -0.49,0  z" class="primitive"/>
            </g>
            <g transform="translate(62.89,80.05)" id="img-4c44ce83-72">
              <path d="M-0.49,-0.26 L0.49,-0.26 0.49,0.26 -0.49,0.26  z" class="primitive"/>
            </g>
            <g transform="translate(63.81,80.32)" id="img-4c44ce83-73">
              <path d="M-0.49,-0 L0.49,-0 0.49,0 -0.49,0  z" class="primitive"/>
            </g>
            <g transform="translate(64.73,80.05)" id="img-4c44ce83-74">
              <path d="M-0.49,-0.26 L0.49,-0.26 0.49,0.26 -0.49,0.26  z" class="primitive"/>
            </g>
            <g transform="translate(65.65,77.95)" id="img-4c44ce83-75">
              <path d="M-0.49,-2.37 L0.49,-2.37 0.49,2.37 -0.49,2.37  z" class="primitive"/>
            </g>
            <g transform="translate(66.57,80.05)" id="img-4c44ce83-76">
              <path d="M-0.49,-0.26 L0.49,-0.26 0.49,0.26 -0.49,0.26  z" class="primitive"/>
            </g>
            <g transform="translate(67.49,78.74)" id="img-4c44ce83-77">
              <path d="M-0.49,-1.58 L0.49,-1.58 0.49,1.58 -0.49,1.58  z" class="primitive"/>
            </g>
            <g transform="translate(68.41,79.26)" id="img-4c44ce83-78">
              <path d="M-0.49,-1.05 L0.49,-1.05 0.49,1.05 -0.49,1.05  z" class="primitive"/>
            </g>
            <g transform="translate(69.33,80.32)" id="img-4c44ce83-79">
              <path d="M-0.49,-0 L0.49,-0 0.49,0 -0.49,0  z" class="primitive"/>
            </g>
            <g transform="translate(70.26,79.53)" id="img-4c44ce83-80">
              <path d="M-0.49,-0.79 L0.49,-0.79 0.49,0.79 -0.49,0.79  z" class="primitive"/>
            </g>
            <g transform="translate(71.18,79.79)" id="img-4c44ce83-81">
              <path d="M-0.49,-0.53 L0.49,-0.53 0.49,0.53 -0.49,0.53  z" class="primitive"/>
            </g>
            <g transform="translate(72.1,80.32)" id="img-4c44ce83-82">
              <path d="M-0.49,-0 L0.49,-0 0.49,0 -0.49,0  z" class="primitive"/>
            </g>
            <g transform="translate(73.02,80.05)" id="img-4c44ce83-83">
              <path d="M-0.49,-0.26 L0.49,-0.26 0.49,0.26 -0.49,0.26  z" class="primitive"/>
            </g>
            <g transform="translate(73.94,79.79)" id="img-4c44ce83-84">
              <path d="M-0.49,-0.53 L0.49,-0.53 0.49,0.53 -0.49,0.53  z" class="primitive"/>
            </g>
            <g transform="translate(74.86,80.05)" id="img-4c44ce83-85">
              <path d="M-0.49,-0.26 L0.49,-0.26 0.49,0.26 -0.49,0.26  z" class="primitive"/>
            </g>
            <g transform="translate(75.78,80.05)" id="img-4c44ce83-86">
              <path d="M-0.49,-0.26 L0.49,-0.26 0.49,0.26 -0.49,0.26  z" class="primitive"/>
            </g>
            <g transform="translate(76.7,80.32)" id="img-4c44ce83-87">
              <path d="M-0.49,-0 L0.49,-0 0.49,0 -0.49,0  z" class="primitive"/>
            </g>
            <g transform="translate(77.63,80.05)" id="img-4c44ce83-88">
              <path d="M-0.49,-0.26 L0.49,-0.26 0.49,0.26 -0.49,0.26  z" class="primitive"/>
            </g>
            <g transform="translate(78.55,80.05)" id="img-4c44ce83-89">
              <path d="M-0.49,-0.26 L0.49,-0.26 0.49,0.26 -0.49,0.26  z" class="primitive"/>
            </g>
            <g transform="translate(79.47,80.32)" id="img-4c44ce83-90">
              <path d="M-0.49,-0 L0.49,-0 0.49,0 -0.49,0  z" class="primitive"/>
            </g>
            <g transform="translate(80.39,80.32)" id="img-4c44ce83-91">
              <path d="M-0.49,-0 L0.49,-0 0.49,0 -0.49,0  z" class="primitive"/>
            </g>
            <g transform="translate(81.31,80.32)" id="img-4c44ce83-92">
              <path d="M-0.49,-0 L0.49,-0 0.49,0 -0.49,0  z" class="primitive"/>
            </g>
            <g transform="translate(82.23,80.32)" id="img-4c44ce83-93">
              <path d="M-0.49,-0 L0.49,-0 0.49,0 -0.49,0  z" class="primitive"/>
            </g>
            <g transform="translate(83.15,80.32)" id="img-4c44ce83-94">
              <path d="M-0.49,-0 L0.49,-0 0.49,0 -0.49,0  z" class="primitive"/>
            </g>
            <g transform="translate(84.07,80.32)" id="img-4c44ce83-95">
              <path d="M-0.49,-0 L0.49,-0 0.49,0 -0.49,0  z" class="primitive"/>
            </g>
            <g transform="translate(85,80.32)" id="img-4c44ce83-96">
              <path d="M-0.49,-0 L0.49,-0 0.49,0 -0.49,0  z" class="primitive"/>
            </g>
            <g transform="translate(85.92,80.32)" id="img-4c44ce83-97">
              <path d="M-0.49,-0 L0.49,-0 0.49,0 -0.49,0  z" class="primitive"/>
            </g>
            <g transform="translate(86.84,80.05)" id="img-4c44ce83-98">
              <path d="M-0.49,-0.26 L0.49,-0.26 0.49,0.26 -0.49,0.26  z" class="primitive"/>
            </g>
            <g transform="translate(87.76,80.32)" id="img-4c44ce83-99">
              <path d="M-0.49,-0 L0.49,-0 0.49,0 -0.49,0  z" class="primitive"/>
            </g>
            <g transform="translate(88.68,80.32)" id="img-4c44ce83-100">
              <path d="M-0.49,-0 L0.49,-0 0.49,0 -0.49,0  z" class="primitive"/>
            </g>
            <g transform="translate(89.6,80.32)" id="img-4c44ce83-101">
              <path d="M-0.49,-0 L0.49,-0 0.49,0 -0.49,0  z" class="primitive"/>
            </g>
            <g transform="translate(90.52,80.32)" id="img-4c44ce83-102">
              <path d="M-0.49,-0 L0.49,-0 0.49,0 -0.49,0  z" class="primitive"/>
            </g>
            <g transform="translate(91.44,79)" id="img-4c44ce83-103">
              <path d="M-0.49,-1.32 L0.49,-1.32 0.49,1.32 -0.49,1.32  z" class="primitive"/>
            </g>
            <g transform="translate(92.36,79.79)" id="img-4c44ce83-104">
              <path d="M-0.49,-0.53 L0.49,-0.53 0.49,0.53 -0.49,0.53  z" class="primitive"/>
            </g>
            <g transform="translate(93.29,79.79)" id="img-4c44ce83-105">
              <path d="M-0.49,-0.53 L0.49,-0.53 0.49,0.53 -0.49,0.53  z" class="primitive"/>
            </g>
            <g transform="translate(94.21,80.05)" id="img-4c44ce83-106">
              <path d="M-0.49,-0.26 L0.49,-0.26 0.49,0.26 -0.49,0.26  z" class="primitive"/>
            </g>
            <g transform="translate(95.13,80.05)" id="img-4c44ce83-107">
              <path d="M-0.49,-0.26 L0.49,-0.26 0.49,0.26 -0.49,0.26  z" class="primitive"/>
            </g>
            <g transform="translate(96.05,80.32)" id="img-4c44ce83-108">
              <path d="M-0.49,-0 L0.49,-0 0.49,0 -0.49,0  z" class="primitive"/>
            </g>
            <g transform="translate(96.97,80.32)" id="img-4c44ce83-109">
              <path d="M-0.49,-0 L0.49,-0 0.49,0 -0.49,0  z" class="primitive"/>
            </g>
            <g transform="translate(97.89,80.32)" id="img-4c44ce83-110">
              <path d="M-0.49,-0 L0.49,-0 0.49,0 -0.49,0  z" class="primitive"/>
            </g>
            <g transform="translate(98.81,79.79)" id="img-4c44ce83-111">
              <path d="M-0.49,-0.53 L0.49,-0.53 0.49,0.53 -0.49,0.53  z" class="primitive"/>
            </g>
            <g transform="translate(99.73,80.32)" id="img-4c44ce83-112">
              <path d="M-0.49,-0 L0.49,-0 0.49,0 -0.49,0  z" class="primitive"/>
            </g>
            <g transform="translate(100.66,80.32)" id="img-4c44ce83-113">
              <path d="M-0.49,-0 L0.49,-0 0.49,0 -0.49,0  z" class="primitive"/>
            </g>
            <g transform="translate(101.58,80.32)" id="img-4c44ce83-114">
              <path d="M-0.49,-0 L0.49,-0 0.49,0 -0.49,0  z" class="primitive"/>
            </g>
            <g transform="translate(102.5,80.32)" id="img-4c44ce83-115">
              <path d="M-0.49,-0 L0.49,-0 0.49,0 -0.49,0  z" class="primitive"/>
            </g>
            <g transform="translate(103.42,80.05)" id="img-4c44ce83-116">
              <path d="M-0.49,-0.26 L0.49,-0.26 0.49,0.26 -0.49,0.26  z" class="primitive"/>
            </g>
            <g transform="translate(104.34,80.32)" id="img-4c44ce83-117">
              <path d="M-0.49,-0 L0.49,-0 0.49,0 -0.49,0  z" class="primitive"/>
            </g>
            <g transform="translate(105.26,80.05)" id="img-4c44ce83-118">
              <path d="M-0.49,-0.26 L0.49,-0.26 0.49,0.26 -0.49,0.26  z" class="primitive"/>
            </g>
            <g transform="translate(106.18,80.32)" id="img-4c44ce83-119">
              <path d="M-0.49,-0 L0.49,-0 0.49,0 -0.49,0  z" class="primitive"/>
            </g>
            <g transform="translate(107.1,80.32)" id="img-4c44ce83-120">
              <path d="M-0.49,-0 L0.49,-0 0.49,0 -0.49,0  z" class="primitive"/>
            </g>
            <g transform="translate(108.02,80.05)" id="img-4c44ce83-121">
              <path d="M-0.49,-0.26 L0.49,-0.26 0.49,0.26 -0.49,0.26  z" class="primitive"/>
            </g>
          </g>
        </g>
        <g class="yfixed" id="img-4c44ce83-122">
          <g stroke-dasharray="none" stroke-width="0.3" stroke="#FF0000" id="img-4c44ce83-123">
            <g transform="translate(23.34,46.46)" id="img-4c44ce83-124">
              <path fill="none" d="M0,-35.85 L0,35.85 " class="primitive"/>
            </g>
          </g>
          <g stroke-dasharray="none" stroke-width="0.3" stroke="#FFA500" id="img-4c44ce83-125">
            <g transform="translate(27.05,46.46)" id="img-4c44ce83-126">
              <path fill="none" d="M0,-35.85 L0,35.85 " class="primitive"/>
            </g>
          </g>
        </g>
      </g>
    </g>
  </g>
  <g class="guide ylabels" font-size="2.82" font-family="'PT Sans Caption','Helvetica Neue','Helvetica',sans-serif" fill="#6C606B" id="img-4c44ce83-127">
    <g transform="translate(13.37,80.32)" id="img-4c44ce83-128">
      <g class="primitive">
        <text text-anchor="end" dy="0.35em">0.000</text>
      </g>
    </g>
    <g transform="translate(13.37,63.39)" id="img-4c44ce83-129">
      <g class="primitive">
        <text text-anchor="end" dy="0.35em">0.025</text>
      </g>
    </g>
    <g transform="translate(13.37,46.46)" id="img-4c44ce83-130">
      <g class="primitive">
        <text text-anchor="end" dy="0.35em">0.050</text>
      </g>
    </g>
    <g transform="translate(13.37,29.54)" id="img-4c44ce83-131">
      <g class="primitive">
        <text text-anchor="end" dy="0.35em">0.075</text>
      </g>
    </g>
    <g transform="translate(13.37,12.61)" id="img-4c44ce83-132">
      <g class="primitive">
        <text text-anchor="end" dy="0.35em">0.100</text>
      </g>
    </g>
  </g>
  <g font-size="3.88" font-family="'PT Sans','Helvetica Neue','Helvetica',sans-serif" fill="#564A55" stroke="#000000" stroke-opacity="0.000" id="img-4c44ce83-133">
    <g transform="translate(80.88,5)" id="img-4c44ce83-134">
      <g class="primitive">
        <text text-anchor="middle" dy="0.6em">Histogram of Taxi Trip Times</text>
      </g>
    </g>
  </g>
</g>
<defs>
  <clipPath id="img-4c44ce83-4">
    <path d="M14.37,10.61 L147.4,10.61 147.4,82.32 14.37,82.32 " />
  </clipPath>
</defs>
</svg>
