<?xml version="1.0" encoding="UTF-8"?>
<svg xmlns="http://www.w3.org/2000/svg"
     xmlns:xlink="http://www.w3.org/1999/xlink"
     xmlns:gadfly="http://www.gadflyjl.org/ns"
     version="1.2"
     width="152.4mm" height="101.6mm" viewBox="0 0 152.4 101.6"
     stroke="none"
     fill="#000000"
     stroke-width="0.3"
     font-size="3.88"
>
<defs>
  <marker id="arrow" markerWidth="15" markerHeight="7" refX="5" refY="3.5" orient="auto" markerUnits="strokeWidth">
    <path d="M0,0 L15,3.5 L0,7 z" stroke="context-stroke" fill="context-stroke"/>
  </marker>
</defs>
<g class="plotroot xscalable yscalable" id="img-f329a65f-1">
  <g font-size="3.88" font-family="'PT Sans','Helvetica Neue','Helvetica',sans-serif" fill="#564A55" stroke="#000000" stroke-opacity="0.000" id="img-f329a65f-2">
    <g transform="translate(83.52,89.99)">
      <g class="primitive">
        <text text-anchor="middle" dy="0.6em">Time From Saturday Midnight (hours)</text>
      </g>
    </g>
  </g>
  <g class="guide xlabels" font-size="2.82" font-family="'PT Sans Caption','Helvetica Neue','Helvetica',sans-serif" fill="#6C606B" id="img-f329a65f-3">
    <g transform="translate(21.63,83.32)">
      <g class="primitive">
        <text text-anchor="middle" dy="0.6em">0</text>
      </g>
    </g>
    <g transform="translate(52.57,83.32)">
      <g class="primitive">
        <text text-anchor="middle" dy="0.6em">50</text>
      </g>
    </g>
    <g transform="translate(83.52,83.32)">
      <g class="primitive">
        <text text-anchor="middle" dy="0.6em">100</text>
      </g>
    </g>
    <g transform="translate(114.46,83.32)">
      <g class="primitive">
        <text text-anchor="middle" dy="0.6em">150</text>
      </g>
    </g>
    <g transform="translate(145.4,83.32)">
      <g class="primitive">
        <text text-anchor="middle" dy="0.6em">200</text>
      </g>
    </g>
  </g>
  <g clip-path="url(#img-f329a65f-4)">
    <g id="img-f329a65f-5">
      <g pointer-events="visible" stroke-width="0.3" fill="#000000" fill-opacity="0.000" stroke="#000000" stroke-opacity="0.000" class="guide background" id="img-f329a65f-6">
        <g transform="translate(83.52,46.46)" id="img-f329a65f-7">
          <path d="M-63.88,-35.85 L63.88,-35.85 63.88,35.85 -63.88,35.85  z" class="primitive"/>
        </g>
      </g>
      <g class="guide ygridlines xfixed" stroke-dasharray="0.5,0.5" stroke-width="0.2" stroke="#D0D0E0" id="img-f329a65f-8">
        <g transform="translate(83.52,80.32)" id="img-f329a65f-9">
          <path fill="none" d="M-63.88,0 L63.88,0 " class="primitive"/>
        </g>
        <g transform="translate(83.52,66.77)" id="img-f329a65f-10">
          <path fill="none" d="M-63.88,0 L63.88,0 " class="primitive"/>
        </g>
        <g transform="translate(83.52,53.23)" id="img-f329a65f-11">
          <path fill="none" d="M-63.88,0 L63.88,0 " class="primitive"/>
        </g>
        <g transform="translate(83.52,39.69)" id="img-f329a65f-12">
          <path fill="none" d="M-63.88,0 L63.88,0 " class="primitive"/>
        </g>
        <g transform="translate(83.52,26.15)" id="img-f329a65f-13">
          <path fill="none" d="M-63.88,0 L63.88,0 " class="primitive"/>
        </g>
        <g transform="translate(83.52,12.61)" id="img-f329a65f-14">
          <path fill="none" d="M-63.88,0 L63.88,0 " class="primitive"/>
        </g>
      </g>
      <g class="guide xgridlines yfixed" stroke-dasharray="0.5,0.5" stroke-width="0.2" stroke="#D0D0E0" id="img-f329a65f-15">
        <g transform="translate(21.63,46.46)" id="img-f329a65f-16">
          <path fill="none" d="M0,-35.85 L0,35.85 " class="primitive"/>
        </g>
        <g transform="translate(52.57,46.46)" id="img-f329a65f-17">
          <path fill="none" d="M0,-35.85 L0,35.85 " class="primitive"/>
        </g>
        <g transform="translate(83.52,46.46)" id="img-f329a65f-18">
          <path fill="none" d="M0,-35.85 L0,35.85 " class="primitive"/>
        </g>
        <g transform="translate(114.46,46.46)" id="img-f329a65f-19">
          <path fill="none" d="M0,-35.85 L0,35.85 " class="primitive"/>
        </g>
        <g transform="translate(145.4,46.46)" id="img-f329a65f-20">
          <path fill="none" d="M0,-35.85 L0,35.85 " class="primitive"/>
        </g>
      </g>
      <g class="plotpanel" id="img-f329a65f-21">
        <metadata>
          <boundingbox value="19.63166666666669mm 10.611666666666665mm 127.76833333333332mm 71.70333333333333mm"/>
          <unitbox value="-3.231844440554262 257.3851607503323 206.46368888110854 -264.77032150066464"/>
        </metadata>
        <g stroke-width="0.3" fill="#000000" fill-opacity="0.000" class="geometry" id="img-f329a65f-22">
          <g class="color_LCHab{Float32}(70.0f0,60.0f0,240.0f0)" stroke-dasharray="none" stroke="#00BFFF" id="img-f329a65f-23">
            <g transform="translate(73.92,59.94)" id="img-f329a65f-24">
              <path fill="none" d="M-51.67,-31.62 L-51.05,-37.31 -50.44,-45.98 -49.82,-40.83 -49.2,-31.62 -48.58,-22.96 -47.96,0.88 -47.34,7.92 -46.72,10.08 -46.1,9.54 -45.48,7.37 -44.87,8.46 -44.25,8.73 -43.63,10.08 -43.01,1.96 -42.39,9 -41.77,4.67 -41.15,4.67 -40.53,5.48 -39.92,5.21 -39.3,5.75 -38.68,2.5 -38.06,3.58 -37.44,1.15 -36.82,5.75 -36.2,3.31 -35.58,8.73 -34.96,13.6 -34.35,12.52 -33.73,11.17 -33.11,2.5 -32.49,1.69 -31.87,-10.5 -31.25,-7.79 -30.63,-11.04 -30.01,-8.87 -29.39,-6.98 -28.78,-2.92 -28.16,-3.46 -27.54,-1.02 -26.92,-1.29 -26.3,-2.92 -25.68,1.96 -25.06,6.56 -24.44,7.65 -23.83,7.65 -23.21,6.02 -22.59,9.27 -21.97,10.9 -21.35,9.27 -20.73,13.33 -20.11,13.87 -19.49,14.69 -18.87,15.23 -18.26,9.81 -17.64,0.06 -17.02,-6.71 -16.4,-6.71 -15.78,-6.44 -15.16,-8.33 -14.54,-6.71 -13.92,-6.17 -13.31,-2.1 -12.69,-6.44 -12.07,-4.27 -11.45,-3.19 -10.83,0.33 -10.21,5.21 -9.59,9 -8.97,8.19 -8.35,5.75 -7.74,4.94 -7.12,8.19 -6.5,8.19 -5.88,11.17 -5.26,12.52 -4.64,15.23 -4.02,15.77 -3.4,9.54 -2.78,1.15 -2.17,-9.69 -1.55,-7.52 -0.93,-8.33 -0.31,-9.96 0.31,-7.52 0.93,-3.73 1.55,-2.1 2.17,-3.46 2.78,0.06 3.4,-2.1 4.02,3.31 4.64,4.4 5.26,4.13 5.88,5.21 6.5,1.96 7.12,7.92 7.74,7.37 8.35,6.29 8.97,8.19 9.59,8.73 10.21,12.52 10.83,13.33 11.45,8.46 12.07,0.88 12.69,-8.6 13.31,-12.12 13.92,-13.21 14.54,-8.06 15.16,-5.9 15.78,-10.23 16.4,-5.08 17.02,-8.87 17.64,-6.17 18.26,-6.98 18.87,0.88 19.49,5.75 20.11,8.46 20.73,2.5 21.35,6.02 21.97,7.1 22.59,5.75 23.21,7.1 23.83,9.54 24.44,10.35 25.06,13.06 25.68,14.42 26.3,8.19 26.92,7.1 27.54,-1.02 28.16,-2.92 28.78,-5.35 29.39,-4.54 30.01,-6.44 30.63,-4.81 31.25,-2.92 31.87,2.23 32.49,0.88 33.11,-1.83 33.73,2.23 34.35,1.42 34.96,2.5 35.58,3.04 36.2,-2.37 36.82,-15.37 37.44,-24.04 38.06,-20.52 38.68,-21.6 39.3,-21.33 39.92,-17 40.53,-12.12 41.15,-2.92 41.77,6.56 42.39,7.65 43.01,4.94 43.63,5.48 44.25,2.77 44.87,-2.37 45.48,3.31 46.1,3.31 46.72,4.67 47.34,3.31 47.96,-0.75 48.58,-1.29 49.2,-1.02 49.82,-0.75 50.44,1.15 51.05,-6.98 51.67,-18.08 " class="primitive"/>
            </g>
          </g>
        </g>
      </g>
    </g>
  </g>
  <g class="guide ylabels" font-size="2.82" font-family="'PT Sans Caption','Helvetica Neue','Helvetica',sans-serif" fill="#6C606B" id="img-f329a65f-25">
    <g transform="translate(18.63,80.32)" id="img-f329a65f-26">
      <g class="primitive">
        <text text-anchor="end" dy="0.35em">0</text>
      </g>
    </g>
    <g transform="translate(18.63,66.77)" id="img-f329a65f-27">
      <g class="primitive">
        <text text-anchor="end" dy="0.35em">50</text>
      </g>
    </g>
    <g transform="translate(18.63,53.23)" id="img-f329a65f-28">
      <g class="primitive">
        <text text-anchor="end" dy="0.35em">100</text>
      </g>
    </g>
    <g transform="translate(18.63,39.69)" id="img-f329a65f-29">
      <g class="primitive">
        <text text-anchor="end" dy="0.35em">150</text>
      </g>
    </g>
    <g transform="translate(18.63,26.15)" id="img-f329a65f-30">
      <g class="primitive">
        <text text-anchor="end" dy="0.35em">200</text>
      </g>
    </g>
    <g transform="translate(18.63,12.61)" id="img-f329a65f-31">
      <g class="primitive">
        <text text-anchor="end" dy="0.35em">250</text>
      </g>
    </g>
  </g>
  <g font-size="3.88" font-family="'PT Sans','Helvetica Neue','Helvetica',sans-serif" fill="#564A55" stroke="#000000" stroke-opacity="0.000" id="img-f329a65f-32">
    <g transform="translate(8.81,44.46)" id="img-f329a65f-33">
      <g class="primitive">
        <text text-anchor="middle" dy="0.35em" transform="rotate(-90,0, 2)">Number of Trips</text>
      </g>
    </g>
  </g>
  <g font-size="3.88" font-family="'PT Sans','Helvetica Neue','Helvetica',sans-serif" fill="#564A55" stroke="#000000" stroke-opacity="0.000" id="img-f329a65f-34">
    <g transform="translate(83.52,5)" id="img-f329a65f-35">
      <g class="primitive">
        <text text-anchor="middle" dy="0.6em">Taxi Trips Per Hour Over Week One</text>
      </g>
    </g>
  </g>
</g>
<defs>
  <clipPath id="img-f329a65f-4">
    <path d="M19.63,10.61 L147.4,10.61 147.4,82.32 19.63,82.32 " />
  </clipPath>
</defs>
</svg>
